<?xml version="1.0" standalone="no"?>
<!DOCTYPE svg PUBLIC "-//W3C//DTD SVG 20010904//EN"
 "http://www.w3.org/TR/2001/REC-SVG-20010904/DTD/svg10.dtd">
<svg version="1.0" xmlns="http://www.w3.org/2000/svg"
 width="700.000000pt" height="700.000000pt" viewBox="0 0 700.000000 700.000000"
 preserveAspectRatio="xMidYMid meet">
<metadata>
Created by potrace 1.11, written by Peter Selinger 2001-2013
</metadata>
<g transform="translate(0.000000,700.000000) scale(0.100000,-0.100000)"
fill="#000000" stroke="none">
<path d="M3786 6364 c-84 -16 -188 -55 -248 -93 -42 -26 -46 -27 -72 -14 -34
18 -202 61 -271 70 -81 10 -244 7 -325 -7 -218 -36 -425 -141 -575 -289 l-60
-60 -45 11 c-76 18 -248 12 -341 -12 -93 -24 -218 -82 -282 -132 -53 -40 -130
-121 -167 -174 -27 -39 -32 -41 -80 -43 -29 0 -70 -6 -93 -12 -315 -83 -536
-276 -656 -573 -19 -45 -51 -187 -51 -223 0 -25 -16 -51 -79 -123 -208 -244
-309 -520 -304 -836 9 -557 405 -1042 958 -1174 99 -23 245 -30 440 -20 33 1
72 -2 88 -8 15 -7 27 -10 27 -7 0 2 15 -1 33 -6 17 -5 55 -12 82 -15 66 -7 97
-12 99 -16 1 -2 19 -39 41 -83 196 -400 546 -628 1000 -650 176 -9 234 -16
309 -35 331 -85 655 -350 810 -667 76 -154 106 -278 109 -458 l2 -90 433 -3
434 -2 -6 27 c-3 16 -8 46 -11 68 -2 22 -7 51 -9 65 -3 14 -8 48 -11 75 -3 28
-15 113 -26 190 -10 77 -21 156 -24 175 -3 19 -8 52 -11 74 -4 26 -3 36 5 32
17 -11 178 -8 276 4 167 20 373 97 515 191 90 61 103 72 205 174 209 210 330
482 349 787 3 35 5 66 5 69 1 4 34 23 75 42 422 200 630 675 486 1109 -27 80
-28 90 -16 120 17 41 42 138 52 198 51 338 -133 704 -432 859 -59 30 -62 34
-69 77 -15 102 -86 268 -167 387 -89 133 -263 280 -412 347 -81 37 -212 76
-288 85 l-57 7 -38 66 c-42 73 -143 180 -216 230 -79 55 -189 104 -288 129
-42 10 -280 11 -317 1 -19 -5 -44 -11 -55 -14 -11 -2 -22 -6 -25 -8 -3 -3 -26
9 -51 27 -195 141 -430 195 -655 151z m313 -240 c61 -17 126 -48 136 -63 3 -6
-15 -29 -40 -52 -149 -137 -247 -350 -248 -539 -1 -75 11 -103 56 -130 41 -25
83 -25 124 0 41 25 53 48 59 118 13 153 65 266 168 368 77 75 144 110 271 139
253 59 518 -97 615 -362 l23 -63 66 -1 c220 -1 396 -71 554 -219 134 -125 224
-304 242 -479 12 -118 12 -118 53 -126 85 -15 215 -97 291 -182 99 -111 153
-256 150 -407 -2 -108 -16 -165 -65 -263 l-37 -75 36 -92 c46 -114 55 -154 60
-241 9 -179 -63 -373 -184 -495 -78 -78 -196 -152 -203 -128 -78 265 -168 422
-335 588 -108 107 -210 180 -333 238 -177 84 -274 103 -325 66 -41 -31 -54
-62 -50 -118 5 -61 33 -88 114 -112 205 -60 397 -190 521 -355 80 -107 150
-260 171 -375 6 -32 13 -70 16 -84 7 -32 8 -247 1 -258 -3 -5 -8 -30 -12 -57
-13 -102 -68 -240 -140 -351 -147 -231 -416 -404 -684 -440 -55 -7 -236 -7
-270 0 -27 6 -61 13 -100 20 -14 3 -59 14 -100 25 -41 12 -78 21 -81 21 -8 0
-5 -31 17 -175 2 -16 6 -43 8 -60 11 -81 28 -203 31 -225 3 -14 7 -50 11 -80
3 -30 8 -64 10 -75 2 -11 6 -40 9 -65 3 -25 8 -55 11 -67 l4 -23 -175 0 c-96
0 -175 3 -176 8 0 4 -2 18 -5 32 -50 301 -179 546 -409 776 -151 151 -266 234
-440 318 -88 43 -254 100 -325 111 -19 3 -47 8 -62 10 -15 3 -83 7 -151 10
-157 6 -272 26 -382 66 -301 109 -537 420 -529 699 3 96 4 105 32 177 29 76
64 131 118 187 47 48 143 116 163 116 5 0 22 16 37 35 48 63 32 142 -38 185
-57 34 -123 13 -250 -80 -173 -127 -303 -378 -307 -594 l-1 -39 -52 7 c-29 4
-82 17 -118 30 -47 16 -73 20 -95 14 -123 -33 -310 -26 -461 18 -168 48 -303
130 -429 257 -242 246 -338 579 -261 911 22 91 67 203 112 273 l36 57 21 -54
c62 -166 195 -325 357 -426 67 -42 207 -104 234 -104 20 0 20 0 0 -38 -45 -90
-51 -261 -15 -370 40 -118 95 -174 163 -166 97 12 138 107 87 204 -19 35 -24
60 -24 115 1 85 25 145 81 195 102 92 107 99 101 154 -4 42 -10 55 -38 78 -29
24 -42 28 -99 29 -141 2 -252 36 -364 112 -256 173 -362 483 -261 762 38 103
81 171 161 250 66 66 196 148 252 160 9 2 45 10 79 18 36 9 99 14 153 13 l91
-3 26 51 c66 130 144 211 258 266 44 21 102 43 129 48 83 17 201 7 301 -26
l90 -29 42 57 c112 154 263 260 450 316 75 23 108 27 223 28 158 1 259 -21
398 -85 85 -39 108 -46 114 -31 6 16 108 90 155 113 112 54 264 68 382 33z"/>
<path d="M2355 5443 c-11 -2 -31 -19 -44 -38 -20 -30 -22 -42 -17 -104 3 -38
16 -102 30 -143 28 -85 27 -90 -52 -180 -57 -65 -100 -103 -157 -139 -48 -30
-146 -78 -172 -82 -10 -2 -38 -10 -63 -17 -25 -7 -94 -13 -155 -13 -125 0
-225 22 -327 74 -47 24 -70 30 -96 25 -53 -8 -82 -41 -82 -91 0 -54 26 -83
111 -123 340 -161 759 -92 1029 169 31 30 68 71 84 91 l28 38 42 -34 c123 -99
322 -159 398 -120 95 49 51 194 -60 194 -81 0 -213 67 -272 138 -58 71 -83
138 -94 254 -4 46 -29 86 -62 98 -26 10 -33 10 -69 3z"/>
<path d="M3233 5326 c-37 -32 -48 -77 -28 -117 20 -38 59 -57 125 -60 143 -7
264 -63 375 -174 121 -121 162 -215 180 -416 5 -59 38 -91 96 -92 35 -1 46 4
71 32 30 33 30 36 25 115 -4 45 -8 90 -11 101 -3 11 -10 40 -16 65 -22 95 -97
224 -181 313 -145 156 -318 239 -524 254 -76 5 -82 4 -112 -21z"/>
<path d="M4775 5237 c-25 -5 -47 -17 -58 -33 -38 -51 -13 -134 43 -150 14 -3
52 -8 86 -10 176 -9 373 -95 502 -218 147 -139 245 -347 256 -542 4 -77 14
-105 48 -128 58 -41 147 5 149 76 6 163 -50 367 -142 519 -49 80 -75 114 -154
193 -153 155 -379 268 -585 291 -91 11 -103 11 -145 2z"/>
<path d="M3072 4584 c-51 -35 -56 -79 -26 -204 74 -305 266 -549 550 -699 66
-35 165 -128 215 -201 74 -110 114 -237 118 -373 2 -88 106 -130 166 -67 25
26 29 38 29 88 -1 127 -39 269 -103 388 l-28 51 131 6 c288 12 549 127 739
326 81 85 118 135 169 231 85 160 89 238 15 273 -61 30 -119 -1 -148 -78 -29
-74 -38 -92 -96 -181 -151 -233 -411 -374 -698 -376 -119 -2 -159 3 -247 26
-128 35 -258 105 -360 196 -110 97 -217 277 -252 425 -35 143 -36 145 -69 165
-39 24 -75 25 -105 4z"/>
<path d="M2599 4042 c-22 -19 -32 -38 -34 -66 -3 -34 1 -42 42 -79 118 -110
161 -156 190 -207 55 -97 77 -179 77 -290 0 -104 -18 -170 -73 -277 -26 -50
-29 -64 -21 -92 10 -36 43 -70 69 -72 79 -5 97 9 146 114 51 108 67 178 71
307 5 170 -27 291 -111 431 -72 118 -234 259 -297 259 -16 0 -40 -11 -59 -28z"/>
<path d="M5135 2835 c-5 -2 -22 -6 -36 -9 -15 -3 -37 -21 -51 -43 -14 -21 -47
-61 -74 -89 -167 -173 -373 -255 -609 -241 -124 7 -211 31 -333 94 -110 56
-144 63 -178 35 -60 -48 -56 -116 9 -163 76 -56 242 -125 343 -143 139 -26
297 -24 392 3 17 5 32 8 32 6 0 -8 144 47 205 78 91 46 173 104 246 177 127
125 156 181 128 243 -11 25 -57 56 -74 52z"/>
</g>
</svg>
